<mxfile host="app.diagrams.net" modified="2022-08-17T08:30:02.997Z" agent="5.0 (Macintosh; Intel Mac OS X 10_15_7) AppleWebKit/537.36 (KHTML, like Gecko) Chrome/104.0.0.0 Safari/537.36" etag="92jzO4JkKR6MPBMElKox" version="20.2.4" type="github">
  <diagram id="hGBkjwyxST1DEmkZyVXI" name="Page-1">
    <mxGraphModel dx="930" dy="603" grid="1" gridSize="10" guides="1" tooltips="1" connect="1" arrows="1" fold="1" page="1" pageScale="1" pageWidth="850" pageHeight="1100" math="0" shadow="0">
      <root>
        <mxCell id="0" />
        <mxCell id="1" parent="0" />
        <mxCell id="URs3KdmpjTGdo8dBZYIT-17" value="" style="group" parent="1" vertex="1" connectable="0">
          <mxGeometry x="40" y="60" width="180" height="975.04" as="geometry" />
        </mxCell>
        <mxCell id="URs3KdmpjTGdo8dBZYIT-12" value="OLVM Server 1" style="rounded=1;whiteSpace=wrap;html=1;verticalAlign=top;" parent="URs3KdmpjTGdo8dBZYIT-17" vertex="1">
          <mxGeometry y="-20.08238589553468" width="180" height="995.1223858955345" as="geometry" />
        </mxCell>
        <mxCell id="URs3KdmpjTGdo8dBZYIT-1" value="Schaefer/SSI" style="rounded=1;whiteSpace=wrap;html=1;labelPosition=center;verticalLabelPosition=middle;align=center;verticalAlign=top;fillColor=#f5f5f5;fontColor=#333333;strokeColor=#666666;" parent="URs3KdmpjTGdo8dBZYIT-17" vertex="1">
          <mxGeometry x="30" y="20.08238589553468" width="120" height="562.3068050749711" as="geometry" />
        </mxCell>
        <mxCell id="URs3KdmpjTGdo8dBZYIT-4" value="Prod&lt;br&gt;Master" style="shape=cylinder3;whiteSpace=wrap;html=1;boundedLbl=1;backgroundOutline=1;size=15;fillColor=#dae8fc;strokeColor=#6c8ebf;" parent="URs3KdmpjTGdo8dBZYIT-17" vertex="1">
          <mxGeometry x="60" y="60.25134151699895" width="60" height="84.51337397704178" as="geometry" />
        </mxCell>
        <mxCell id="URs3KdmpjTGdo8dBZYIT-6" value="Lighthouse&lt;br&gt;Master" style="shape=cylinder3;whiteSpace=wrap;html=1;boundedLbl=1;backgroundOutline=1;size=15;fillColor=#d5e8d4;strokeColor=#82b366;" parent="URs3KdmpjTGdo8dBZYIT-17" vertex="1">
          <mxGeometry x="60" y="160.6615974625144" width="60" height="84.51337397704178" as="geometry" />
        </mxCell>
        <mxCell id="URs3KdmpjTGdo8dBZYIT-7" value="Vision&lt;br&gt;Master" style="shape=cylinder3;whiteSpace=wrap;html=1;boundedLbl=1;backgroundOutline=1;size=15;fillColor=#ffe6cc;strokeColor=#d79b00;" parent="URs3KdmpjTGdo8dBZYIT-17" vertex="1">
          <mxGeometry x="60" y="261.0718534080298" width="60" height="84.51337397704178" as="geometry" />
        </mxCell>
        <mxCell id="URs3KdmpjTGdo8dBZYIT-8" value="DWH&lt;br&gt;Master" style="shape=cylinder3;whiteSpace=wrap;html=1;boundedLbl=1;backgroundOutline=1;size=15;fillColor=#fff2cc;strokeColor=#d6b656;" parent="URs3KdmpjTGdo8dBZYIT-17" vertex="1">
          <mxGeometry x="60" y="361.7933863349261" width="60" height="84.51337397704178" as="geometry" />
        </mxCell>
        <mxCell id="URs3KdmpjTGdo8dBZYIT-9" value="Test" style="shape=cylinder3;whiteSpace=wrap;html=1;boundedLbl=1;backgroundOutline=1;size=15;fillColor=#e1d5e7;strokeColor=#9673a6;" parent="URs3KdmpjTGdo8dBZYIT-17" vertex="1">
          <mxGeometry x="60" y="461.89236529906077" width="60" height="84.51337397704178" as="geometry" />
        </mxCell>
        <mxCell id="URs3KdmpjTGdo8dBZYIT-13" value="Astro" style="rounded=1;whiteSpace=wrap;html=1;verticalAlign=top;fillColor=#bac8d3;strokeColor=#23445d;" parent="URs3KdmpjTGdo8dBZYIT-17" vertex="1">
          <mxGeometry x="30" y="612.5094227494918" width="120" height="338.0534959081671" as="geometry" />
        </mxCell>
        <mxCell id="URs3KdmpjTGdo8dBZYIT-14" value="Prod&lt;br&gt;Master" style="shape=cylinder3;whiteSpace=wrap;html=1;boundedLbl=1;backgroundOutline=1;size=15;rounded=1;fillColor=#fad9d5;strokeColor=#ae4132;" parent="URs3KdmpjTGdo8dBZYIT-17" vertex="1">
          <mxGeometry x="60" y="652.6750313066402" width="60" height="84.51337397704178" as="geometry" />
        </mxCell>
        <mxCell id="URs3KdmpjTGdo8dBZYIT-15" value="Arc" style="shape=cylinder3;whiteSpace=wrap;html=1;boundedLbl=1;backgroundOutline=1;size=15;rounded=1;fillColor=#ffcc99;strokeColor=#36393d;" parent="URs3KdmpjTGdo8dBZYIT-17" vertex="1">
          <mxGeometry x="60" y="753.0852872521555" width="60" height="84.51337397704178" as="geometry" />
        </mxCell>
        <mxCell id="URs3KdmpjTGdo8dBZYIT-16" value="Dev/Test" style="shape=cylinder3;whiteSpace=wrap;html=1;boundedLbl=1;backgroundOutline=1;size=15;rounded=1;fillColor=#ffff88;strokeColor=#36393d;" parent="URs3KdmpjTGdo8dBZYIT-17" vertex="1">
          <mxGeometry x="60" y="853.5055843906189" width="60" height="84.51337397704178" as="geometry" />
        </mxCell>
        <mxCell id="URs3KdmpjTGdo8dBZYIT-18" value="" style="group" parent="1" vertex="1" connectable="0">
          <mxGeometry x="620" y="64" width="180" height="971.04" as="geometry" />
        </mxCell>
        <mxCell id="URs3KdmpjTGdo8dBZYIT-19" value="OLVM Server 2" style="rounded=1;whiteSpace=wrap;html=1;verticalAlign=top;" parent="URs3KdmpjTGdo8dBZYIT-18" vertex="1">
          <mxGeometry y="-20" width="180" height="991.04" as="geometry" />
        </mxCell>
        <mxCell id="URs3KdmpjTGdo8dBZYIT-20" value="Schaefer/SSI" style="rounded=1;whiteSpace=wrap;html=1;labelPosition=center;verticalLabelPosition=middle;align=center;verticalAlign=top;fillColor=#f5f5f5;fontColor=#333333;strokeColor=#666666;" parent="URs3KdmpjTGdo8dBZYIT-18" vertex="1">
          <mxGeometry x="30" y="20" width="120" height="560" as="geometry" />
        </mxCell>
        <mxCell id="URs3KdmpjTGdo8dBZYIT-21" value="Prod&lt;br&gt;Standby" style="shape=cylinder3;whiteSpace=wrap;html=1;boundedLbl=1;backgroundOutline=1;size=15;fillColor=#dae8fc;strokeColor=#6c8ebf;" parent="URs3KdmpjTGdo8dBZYIT-18" vertex="1">
          <mxGeometry x="60" y="60.00416666666666" width="60" height="84.16666666666666" as="geometry" />
        </mxCell>
        <mxCell id="URs3KdmpjTGdo8dBZYIT-22" value="Lighthouse&lt;br&gt;Standby" style="shape=cylinder3;whiteSpace=wrap;html=1;boundedLbl=1;backgroundOutline=1;size=15;fillColor=#d5e8d4;strokeColor=#82b366;" parent="URs3KdmpjTGdo8dBZYIT-18" vertex="1">
          <mxGeometry x="60" y="160.0025" width="60" height="84.16666666666666" as="geometry" />
        </mxCell>
        <mxCell id="URs3KdmpjTGdo8dBZYIT-23" value="Vision&lt;br&gt;Standby" style="shape=cylinder3;whiteSpace=wrap;html=1;boundedLbl=1;backgroundOutline=1;size=15;fillColor=#ffe6cc;strokeColor=#d79b00;" parent="URs3KdmpjTGdo8dBZYIT-18" vertex="1">
          <mxGeometry x="60" y="260.00083333333333" width="60" height="84.16666666666666" as="geometry" />
        </mxCell>
        <mxCell id="URs3KdmpjTGdo8dBZYIT-24" value="DWH&lt;br&gt;Standby" style="shape=cylinder3;whiteSpace=wrap;html=1;boundedLbl=1;backgroundOutline=1;size=15;fillColor=#fff2cc;strokeColor=#d6b656;" parent="URs3KdmpjTGdo8dBZYIT-18" vertex="1">
          <mxGeometry x="60" y="360.30916666666667" width="60" height="84.16666666666666" as="geometry" />
        </mxCell>
        <mxCell id="URs3KdmpjTGdo8dBZYIT-25" value="Test" style="shape=cylinder3;whiteSpace=wrap;html=1;boundedLbl=1;backgroundOutline=1;size=15;fillColor=#e1d5e7;strokeColor=#9673a6;" parent="URs3KdmpjTGdo8dBZYIT-18" vertex="1">
          <mxGeometry x="60" y="459.9975" width="60" height="84.16666666666666" as="geometry" />
        </mxCell>
        <mxCell id="URs3KdmpjTGdo8dBZYIT-26" value="Astro" style="rounded=1;whiteSpace=wrap;html=1;verticalAlign=top;fillColor=#bac8d3;strokeColor=#23445d;" parent="URs3KdmpjTGdo8dBZYIT-18" vertex="1">
          <mxGeometry x="30" y="609.9966666666666" width="120" height="336.66666666666663" as="geometry" />
        </mxCell>
        <mxCell id="URs3KdmpjTGdo8dBZYIT-27" value="Prod" style="shape=cylinder3;whiteSpace=wrap;html=1;boundedLbl=1;backgroundOutline=1;size=15;rounded=1;fillColor=#fad9d5;strokeColor=#ae4132;" parent="URs3KdmpjTGdo8dBZYIT-18" vertex="1">
          <mxGeometry x="60" y="649.9975" width="60" height="84.16666666666666" as="geometry" />
        </mxCell>
        <mxCell id="URs3KdmpjTGdo8dBZYIT-28" value="Arc" style="shape=cylinder3;whiteSpace=wrap;html=1;boundedLbl=1;backgroundOutline=1;size=15;rounded=1;fillColor=#ffcc99;strokeColor=#36393d;" parent="URs3KdmpjTGdo8dBZYIT-18" vertex="1">
          <mxGeometry x="60" y="749.9958333333332" width="60" height="84.16666666666666" as="geometry" />
        </mxCell>
        <mxCell id="URs3KdmpjTGdo8dBZYIT-29" value="Dev/Test" style="shape=cylinder3;whiteSpace=wrap;html=1;boundedLbl=1;backgroundOutline=1;size=15;rounded=1;fillColor=#ffff88;strokeColor=#36393d;" parent="URs3KdmpjTGdo8dBZYIT-18" vertex="1">
          <mxGeometry x="60" y="850.0041666666666" width="60" height="84.16666666666666" as="geometry" />
        </mxCell>
        <mxCell id="X32fHI-Ej5mFMME4fbT7-1" value="" style="endArrow=none;html=1;rounded=0;labelPosition=center;verticalLabelPosition=top;align=center;verticalAlign=top;sketch=0;fontStyle=0;strokeWidth=2;" edge="1" parent="1">
          <mxGeometry width="50" height="50" relative="1" as="geometry">
            <mxPoint x="280" y="1035.04" as="sourcePoint" />
            <mxPoint x="280" y="35.04" as="targetPoint" />
          </mxGeometry>
        </mxCell>
        <mxCell id="X32fHI-Ej5mFMME4fbT7-5" value="Mgmt OOB" style="edgeLabel;html=1;align=center;verticalAlign=middle;resizable=0;points=[];" vertex="1" connectable="0" parent="X32fHI-Ej5mFMME4fbT7-1">
          <mxGeometry x="0.978" y="1" relative="1" as="geometry">
            <mxPoint as="offset" />
          </mxGeometry>
        </mxCell>
        <mxCell id="X32fHI-Ej5mFMME4fbT7-6" value="" style="endArrow=none;html=1;rounded=0;labelPosition=center;verticalLabelPosition=top;align=center;verticalAlign=top;sketch=0;fontStyle=0;fillColor=#60a917;strokeColor=#2D7600;strokeWidth=2;" edge="1" parent="1">
          <mxGeometry width="50" height="50" relative="1" as="geometry">
            <mxPoint x="350" y="1035.04" as="sourcePoint" />
            <mxPoint x="350" y="35.04" as="targetPoint" />
          </mxGeometry>
        </mxCell>
        <mxCell id="X32fHI-Ej5mFMME4fbT7-7" value="Logistik" style="edgeLabel;html=1;align=center;verticalAlign=middle;resizable=0;points=[];" vertex="1" connectable="0" parent="X32fHI-Ej5mFMME4fbT7-6">
          <mxGeometry x="0.978" y="1" relative="1" as="geometry">
            <mxPoint as="offset" />
          </mxGeometry>
        </mxCell>
        <mxCell id="X32fHI-Ej5mFMME4fbT7-8" value="" style="endArrow=none;html=1;rounded=0;labelPosition=center;verticalLabelPosition=top;align=center;verticalAlign=top;sketch=0;fontStyle=0;strokeWidth=2;fillColor=#1ba1e2;strokeColor=#006EAF;" edge="1" parent="1">
          <mxGeometry width="50" height="50" relative="1" as="geometry">
            <mxPoint x="430" y="1035.04" as="sourcePoint" />
            <mxPoint x="430" y="35.039999999999964" as="targetPoint" />
          </mxGeometry>
        </mxCell>
        <mxCell id="X32fHI-Ej5mFMME4fbT7-9" value="Storage" style="edgeLabel;html=1;align=center;verticalAlign=middle;resizable=0;points=[];" vertex="1" connectable="0" parent="X32fHI-Ej5mFMME4fbT7-8">
          <mxGeometry x="0.978" y="1" relative="1" as="geometry">
            <mxPoint as="offset" />
          </mxGeometry>
        </mxCell>
        <mxCell id="X32fHI-Ej5mFMME4fbT7-10" value="" style="endArrow=none;html=1;rounded=0;labelPosition=center;verticalLabelPosition=top;align=center;verticalAlign=top;sketch=0;fontStyle=0;strokeWidth=2;fillColor=#e51400;strokeColor=#B20000;" edge="1" parent="1">
          <mxGeometry width="50" height="50" relative="1" as="geometry">
            <mxPoint x="490" y="1035.04" as="sourcePoint" />
            <mxPoint x="490" y="35.039999999999964" as="targetPoint" />
          </mxGeometry>
        </mxCell>
        <mxCell id="X32fHI-Ej5mFMME4fbT7-11" value="Prod" style="edgeLabel;html=1;align=center;verticalAlign=middle;resizable=0;points=[];" vertex="1" connectable="0" parent="X32fHI-Ej5mFMME4fbT7-10">
          <mxGeometry x="0.978" y="1" relative="1" as="geometry">
            <mxPoint as="offset" />
          </mxGeometry>
        </mxCell>
        <mxCell id="X32fHI-Ej5mFMME4fbT7-12" value="" style="endArrow=none;html=1;rounded=0;labelPosition=center;verticalLabelPosition=top;align=center;verticalAlign=top;sketch=0;fontStyle=0;fillColor=#fff2cc;strokeColor=#d6b656;strokeWidth=2;gradientColor=#ffd966;" edge="1" parent="1">
          <mxGeometry width="50" height="50" relative="1" as="geometry">
            <mxPoint x="560" y="1035.04" as="sourcePoint" />
            <mxPoint x="560" y="35.039999999999964" as="targetPoint" />
          </mxGeometry>
        </mxCell>
        <mxCell id="X32fHI-Ej5mFMME4fbT7-13" value="Test" style="edgeLabel;html=1;align=center;verticalAlign=middle;resizable=0;points=[];" vertex="1" connectable="0" parent="X32fHI-Ej5mFMME4fbT7-12">
          <mxGeometry x="0.978" y="1" relative="1" as="geometry">
            <mxPoint as="offset" />
          </mxGeometry>
        </mxCell>
        <mxCell id="X32fHI-Ej5mFMME4fbT7-15" value="" style="endArrow=classic;startArrow=classic;html=1;rounded=0;sketch=0;strokeWidth=2;" edge="1" parent="1">
          <mxGeometry width="50" height="50" relative="1" as="geometry">
            <mxPoint x="220" y="90" as="sourcePoint" />
            <mxPoint x="280" y="90" as="targetPoint" />
          </mxGeometry>
        </mxCell>
        <mxCell id="X32fHI-Ej5mFMME4fbT7-16" value="" style="endArrow=classic;startArrow=classic;html=1;rounded=0;sketch=0;strokeWidth=2;fillColor=#60a917;strokeColor=#2D7600;" edge="1" parent="1">
          <mxGeometry width="50" height="50" relative="1" as="geometry">
            <mxPoint x="190" y="150" as="sourcePoint" />
            <mxPoint x="350" y="150" as="targetPoint" />
          </mxGeometry>
        </mxCell>
        <mxCell id="X32fHI-Ej5mFMME4fbT7-17" value="" style="endArrow=classic;startArrow=classic;html=1;rounded=0;sketch=0;strokeWidth=2;fillColor=#60a917;strokeColor=#2D7600;entryX=0;entryY=0.136;entryDx=0;entryDy=0;entryPerimeter=0;" edge="1" parent="1" target="URs3KdmpjTGdo8dBZYIT-20">
          <mxGeometry width="50" height="50" relative="1" as="geometry">
            <mxPoint x="350" y="160" as="sourcePoint" />
            <mxPoint x="360" y="160" as="targetPoint" />
          </mxGeometry>
        </mxCell>
        <mxCell id="X32fHI-Ej5mFMME4fbT7-18" value="" style="endArrow=classic;startArrow=classic;html=1;rounded=0;sketch=0;strokeWidth=2;entryX=-0.017;entryY=0.057;entryDx=0;entryDy=0;entryPerimeter=0;" edge="1" parent="1" target="URs3KdmpjTGdo8dBZYIT-19">
          <mxGeometry width="50" height="50" relative="1" as="geometry">
            <mxPoint x="280" y="100" as="sourcePoint" />
            <mxPoint x="590" y="100" as="targetPoint" />
          </mxGeometry>
        </mxCell>
        <mxCell id="X32fHI-Ej5mFMME4fbT7-19" value="" style="endArrow=classic;startArrow=classic;html=1;rounded=0;sketch=0;strokeWidth=2;fillColor=#1ba1e2;strokeColor=#006EAF;" edge="1" parent="1">
          <mxGeometry width="50" height="50" relative="1" as="geometry">
            <mxPoint x="220" y="200" as="sourcePoint" />
            <mxPoint x="430" y="200" as="targetPoint" />
          </mxGeometry>
        </mxCell>
        <mxCell id="X32fHI-Ej5mFMME4fbT7-20" value="" style="endArrow=classic;startArrow=classic;html=1;rounded=0;sketch=0;strokeWidth=2;fillColor=#1ba1e2;strokeColor=#006EAF;entryX=-0.003;entryY=0.169;entryDx=0;entryDy=0;entryPerimeter=0;" edge="1" parent="1" target="URs3KdmpjTGdo8dBZYIT-19">
          <mxGeometry width="50" height="50" relative="1" as="geometry">
            <mxPoint x="430" y="210" as="sourcePoint" />
            <mxPoint x="590" y="210" as="targetPoint" />
          </mxGeometry>
        </mxCell>
      </root>
    </mxGraphModel>
  </diagram>
</mxfile>
